<svg width="405" height="117" viewBox="0 0 405 117" fill="none" xmlns="http://www.w3.org/2000/svg">
<path d="M83.352 110.497H45.3C33.22 110.497 24.7137 108.433 19.781 104.306C14.949 100.078 12.533 92.6785 12.533 82.1085V2.98452H83.352V21.7085H33.522V46.9255H68.403L66.893 65.6495H33.522V80.5985C33.522 84.8265 34.4783 87.7459 36.391 89.3565C38.3037 90.9672 41.7767 91.7725 46.81 91.7725H83.352V110.497ZM168.134 110.497H113.472C107.935 110.497 103.707 109.188 100.788 106.571C97.8684 103.953 96.4088 100.531 96.4088 96.3025C96.4088 92.0745 97.9691 87.6452 101.09 83.0145L143.37 21.7085H99.4288V2.98452H168.134V19.5945L119.059 91.7725H168.134V110.497ZM260.07 2.98452L227.756 66.4045V110.497H206.918V66.4045L174.604 2.98452H197.405L217.488 46.3215L237.269 2.98452H260.07Z" fill="url(#paint0_linear)"/>
<path d="M334.537 113.519H315.209L315.36 77.581L294.371 88.906C282.694 88.906 274.842 84.678 270.815 76.222C268.802 72.0947 267.392 67.6653 266.587 62.934C265.882 58.102 265.53 53.119 265.53 47.985C265.53 42.7503 265.58 38.925 265.681 36.509C265.782 33.9923 266.033 31.1233 266.436 27.902C266.839 24.58 267.392 21.8117 268.097 19.597C268.902 17.3823 270.01 15.1173 271.419 12.802C272.828 10.386 274.489 8.47333 276.402 7.064C281.033 3.94333 286.972 2.383 294.22 2.383H314.907L334.537 1.17499V113.519ZM314.907 60.518V20.05H299.958C294.421 20.05 290.546 22.164 288.331 26.392C286.217 30.62 285.16 36.962 285.16 45.418C285.16 53.7733 286.167 59.6623 288.18 63.085C290.294 66.5077 294.22 68.219 299.958 68.219L314.907 60.518ZM402.419 2.081L396.983 21.409C395.473 20.805 393.761 20.503 391.849 20.503C386.815 20.503 380.624 22.6673 373.276 26.996V88H353.646V1.77899H368.293L372.823 9.329L393.661 0.721999C394.667 0.621327 396.026 0.570992 397.738 0.570992C399.449 0.570992 401.009 1.07433 402.419 2.081Z" fill="url(#paint1_linear)"/>
<defs>
<linearGradient id="paint0_linear" x1="14.5" y1="28.3311" x2="177.151" y2="161.438" gradientUnits="userSpaceOnUse">
<stop stop-color="#00F37F"/>
<stop offset="1" stop-color="#00C29F"/>
</linearGradient>
<linearGradient id="paint1_linear" x1="269" y1="23.1847" x2="341.602" y2="98.0675" gradientUnits="userSpaceOnUse">
<stop stop-color="#FDC022"/>
<stop offset="1" stop-color="#FF6B00"/>
</linearGradient>
</defs>
</svg>
